<mxfile host="app.diagrams.net" modified="2023-03-25T12:47:05.410Z" agent="Mozilla/5.0 (Windows NT 6.1; Win64; x64) AppleWebKit/537.36 (KHTML, like Gecko) Chrome/100.0.4896.127 Safari/537.36" version="21.1.0" etag="XuXQjlyDMr5gp7ucu0JL" type="github">
  <diagram name="第 1 页" id="LrC3G2hFbO8H0TZSgjPt">
    <mxGraphModel>
      <root>
        <mxCell id="0" />
        <mxCell id="1" parent="0" />
      </root>
    </mxGraphModel>
  </diagram>
</mxfile>
